<?xml version="1.0" encoding="UTF-8"?>
<svg version="1.1" xmlns="http://www.w3.org/2000/svg" width="1024" height="1024">
<path d="M0 0 C0.94729918 0.00042423 1.89459835 0.00084846 2.87060356 0.00128555 C26.64291302 0.01211704 50.41520786 0.03173277 74.1875 0.0625 C75.9294614 5.17669719 77.5869509 10.2804232 78.97412109 15.50463867 C79.29277634 16.6985321 79.61143158 17.89242554 79.93974304 19.12249756 C80.27673721 20.39562805 80.61373138 21.66875854 80.9609375 22.98046875 C81.32449024 24.34458905 81.6883747 25.70862098 82.05256653 27.0725708 C82.82448106 29.96462725 83.59509195 32.85702593 84.36459351 35.74972534 C86.38441557 43.34060263 88.41412418 50.92882885 90.44921875 58.515625 C90.65201006 59.27167463 90.85480137 60.02772427 91.06373787 60.80668449 C94.96600563 75.34183359 99.03409862 89.82672392 103.17510986 104.29562378 C107.31956054 118.79023615 111.17443796 133.32112726 114.63769531 147.99511719 C115.12383194 150.10375998 115.12383194 150.10375998 116.1875 152.0625 C123.02967556 144.8184656 129.7140267 137.55683845 135.9453125 129.7734375 C138.42656788 126.77345277 141.03619254 123.91101215 143.6875 121.0625 C147.99754437 116.43009774 152.03811852 111.64126917 156.0078125 106.7109375 C158.16507399 104.08974881 160.40061 101.57095719 162.6875 99.0625 C165.78305196 95.66651318 168.73901207 92.20078469 171.625 88.625 C175.48575137 83.851097 179.56187075 79.32861572 183.71875 74.8125 C186.13128104 72.12512366 188.4200621 69.37284556 190.6875 66.5625 C194.52585414 61.80510332 198.58372359 57.30466082 202.72265625 52.80859375 C205.11457297 50.14374834 207.38004884 47.41418175 209.625 44.625 C212.94329284 40.53008543 216.34598045 36.53819586 219.875 32.625 C220.74511719 31.65691406 221.61523438 30.68882812 222.51171875 29.69140625 C225.1875 27.0625 225.1875 27.0625 228.078125 25.1796875 C232.06440565 22.46541097 235.03254027 19.19104692 238.25 15.625 C240.02720617 13.67944707 241.80536822 11.73653422 243.60717773 9.8137207 C245.35950317 7.92853059 245.35950317 7.92853059 247.3515625 5.140625 C252.00631343 1.72970558 256.87076855 2.27678815 262.5 2.25 C264.45220459 2.21229492 264.45220459 2.21229492 266.44384766 2.17382812 C283.40571763 1.87805798 300.38556 2.00940144 317.34887695 2.09838867 C329.6706217 2.15154144 341.90028777 2.03454151 354.1875 1.0625 C354.1875 2.3825 354.1875 3.7025 354.1875 5.0625 C352.92058493 5.73658308 351.64879251 6.40150497 350.375 7.0625 C349.66730469 7.43375 348.95960938 7.805 348.23046875 8.1875 C346.1875 9.0625 346.1875 9.0625 343.1875 9.0625 C343.1875 10.0525 343.1875 11.0425 343.1875 12.0625 C342.3625 12.371875 341.5375 12.68125 340.6875 13 C333.28315364 16.74593409 328.66164919 24.3531427 325 31.5078125 C324.01300464 34.09188305 324.01300464 34.09188305 324.34326172 37.05273438 C324.391006 42.25778923 322.54671612 46.89934998 320.8828125 51.7734375 C320.35693542 53.35713387 320.35693542 53.35713387 319.82043457 54.9728241 C319.05925151 57.26248808 318.29351187 59.55064118 317.52374268 61.83743286 C315.65713743 67.38537493 313.81925995 72.94278505 311.98096848 78.50016212 C311.33862985 80.44125391 310.69515059 82.38196538 310.05166626 84.32267761 C305.50640887 98.04822449 301.14851867 111.83207841 296.8125 125.625 C296.05350954 128.03565799 295.29447663 130.44630261 294.53540039 132.85693359 C291.82300446 141.4757701 289.11760249 150.096797 286.41357422 158.71826172 C285.09706386 162.91575073 283.77819275 167.11249194 282.45794678 171.30880737 C281.80435805 173.38945543 281.15412314 175.4711227 280.50439453 177.55297852 C278.1298852 185.12483263 275.65849042 192.66017893 273.12994766 200.18210793 C266.66537594 219.41561452 260.54556815 238.7391012 254.58355713 258.1338501 C253.15466922 262.77942823 251.72103697 267.42354438 250.28741741 272.06766415 C249.14144022 275.7802347 247.99686337 279.49321945 246.8561554 283.20741272 C245.01251544 289.2041771 243.15984355 295.1959475 241.20581055 301.15795898 C240.77840324 302.46919235 240.77840324 302.46919235 240.34236145 303.80691528 C239.84546923 305.3209922 239.34094723 306.83260621 238.82572937 308.34054565 C236.30360265 316.03032078 235.33427645 324.75207753 238.58984375 332.32421875 C243.85567743 341.34952293 253.38427246 346.42049541 263.1875 349.0625 C260.50679584 351.74320416 258.43408546 351.32760156 254.78819275 351.36747742 C253.46797874 351.36153313 253.46797874 351.36153313 252.12109375 351.35546875 C250.75900536 351.34994743 250.75900536 351.34994743 249.36940002 351.34431458 C247.44176379 351.32939055 245.51416892 351.30793646 243.58666992 351.28051758 C241.6248599 351.26030274 239.6627483 351.25939997 237.70092773 351.27856445 C221.43320374 351.43658356 221.43320374 351.43658356 215.92602539 348.06689453 C213.69908381 345.84331454 211.93340083 343.67108468 210.1875 341.0625 C208.5420622 339.37487149 206.87461423 337.7084651 205.1875 336.0625 C204.50558594 335.39605469 203.82367187 334.72960937 203.12109375 334.04296875 C196.21665254 327.53750007 188.40907354 321.64627192 179.58203125 317.98046875 C175.65572905 314.83558396 174.45825225 310.3583358 172.6875 305.75 C168.80656084 294.92868666 168.80656084 294.92868666 160.375 287.6875 C159.653125 287.48125 158.93125 287.275 158.1875 287.0625 C156.7244343 288.80854549 155.2672192 290.55949453 153.8125 292.3125 C152.59433594 293.77429688 152.59433594 293.77429688 151.3515625 295.265625 C148.84989514 298.45674983 148.84989514 298.45674983 147.1875 302.0625 C147.55234054 304.90173541 147.55234054 304.90173541 148.5234375 307.921875 C148.84570312 309.03691406 149.16796875 310.15195312 149.5 311.30078125 C149.850625 312.45964844 150.20125 313.61851562 150.5625 314.8125 C150.90539062 315.98683594 151.24828125 317.16117188 151.6015625 318.37109375 C152.45069215 321.27228671 153.31307333 324.16885056 154.1875 327.0625 C149.91139782 325.14649155 147.44033142 322.17427579 144.5 318.625 C143.97108154 317.99754883 143.44216309 317.37009766 142.8972168 316.72363281 C138.98692691 312.07074821 135.15496347 307.35441536 131.328125 302.6328125 C129.20285266 300.0809344 126.99775547 297.63173759 124.75 295.1875 C121.3055313 291.4124104 118.14774688 287.50444288 115.0625 283.4375 C110.83216186 277.87261131 110.83216186 277.87261131 106.4375 272.4375 C105.70273438 271.55191406 105.70273438 271.55191406 104.953125 270.6484375 C102.70953335 268.49228493 102.70953335 268.49228493 97.1875 266.0625 C94.5475 270.6825 91.9075 275.3025 89.1875 280.0625 C88.5275 279.7325 87.8675 279.4025 87.1875 279.0625 C86.56494141 276.23022461 86.56494141 276.23022461 86.0390625 272.46484375 C85.83616401 271.09176338 85.63303116 269.71871763 85.4296875 268.34570312 C85.12027628 266.18299679 84.81524105 264.0197982 84.515625 261.85571289 C82.98583802 250.93459386 81.33606092 242.63613934 73.1875 234.5 C72.341875 233.63246094 71.49625 232.76492188 70.625 231.87109375 C68.42762722 229.8146332 68.42762722 229.8146332 66.23339844 230.26733398 C63.89876745 231.1747198 62.74352385 232.17454902 61.015625 233.9765625 C60.43820557 234.56880615 59.86078613 235.1610498 59.26586914 235.77124023 C58.36082642 236.71978882 58.36082642 236.71978882 57.4375 237.6875 C56.1724554 238.9849111 54.9055473 240.280508 53.63671875 241.57421875 C52.73252197 242.49726807 52.73252197 242.49726807 51.81005859 243.43896484 C50.02892952 245.22116592 48.18231226 246.8833414 46.25 248.5 C43.5298359 250.83758663 40.95246997 253.25212289 38.44140625 255.8125 C37.76392334 256.49771729 37.08644043 257.18293457 36.38842773 257.88891602 C35.01734076 259.28322263 33.65086182 260.68207735 32.28930664 262.08569336 C31.66016357 262.72643799 31.03102051 263.36718262 30.3828125 264.02734375 C29.53227295 264.90314087 29.53227295 264.90314087 28.66455078 265.79663086 C27.1875 267.0625 27.1875 267.0625 25.1875 267.0625 C25.1875 268.0525 25.1875 269.0425 25.1875 270.0625 C25.72810059 270.21307861 26.26870117 270.36365723 26.82568359 270.51879883 C34.96577885 272.86751209 42.87483493 275.80617392 50.8125 278.75 C52.21213767 279.26655226 53.61187658 279.78283029 55.01171875 280.29882812 C58.40481725 281.55023034 61.79653611 282.80532326 65.1875 284.0625 C65.1875 285.0525 65.1875 286.0425 65.1875 287.0625 C63.86157227 288.31762695 63.86157227 288.31762695 62.00390625 289.55078125 C61.32714844 290.00735107 60.65039062 290.4639209 59.953125 290.93432617 C59.22609375 291.40974854 58.4990625 291.8851709 57.75 292.375 C57.02167969 292.86266846 56.29335938 293.35033691 55.54296875 293.8527832 C53.43031689 295.26505526 51.30954998 296.66440691 49.1875 298.0625 C47.35383524 299.29117219 45.5204157 300.52021065 43.6875 301.75 C42.52169151 302.52213062 41.35544405 303.2936035 40.1875 304.0625 C40.91116315 300.71819263 42.00465496 298.71987657 44.1875 296.0625 C42.5375 296.0625 40.8875 296.0625 39.1875 296.0625 C39.81978516 295.33933594 39.81978516 295.33933594 40.46484375 294.6015625 C41.28662109 293.65410156 41.28662109 293.65410156 42.125 292.6875 C42.67027344 292.06101562 43.21554687 291.43453125 43.77734375 290.7890625 C45.25708624 289.10617666 45.25708624 289.10617666 46.1875 287.0625 C34.29760862 291.23057313 23.08013325 296.31788627 11.8125 301.9375 C9.44551019 303.1128063 7.07747331 304.2858619 4.7071228 305.45437622 C3.24931181 306.17349862 1.79350385 306.89669977 0.33999634 307.6244812 C-4.588897 310.0625 -4.588897 310.0625 -6.8125 310.0625 C-5.70057237 304.52902485 -4.29862749 299.29121629 -2.30078125 294.0078125 C-1.57848211 291.86843319 -1.57848211 291.86843319 -2.8125 289.0625 C-10.65192971 293.82422768 -18.56098867 299.58851406 -24.22705078 306.88378906 C-29.00599735 312.96932787 -34.8722769 316.4627702 -41.6015625 320.07470703 C-43.45183109 321.07021058 -45.28458773 322.09349052 -47.1171875 323.12109375 C-56.90623262 328.49730422 -56.90623262 328.49730422 -61.8125 328.0625 C-63.10289884 325.12977536 -62.77199131 323.94568094 -61.703125 320.86328125 C-59.78086743 316.58298001 -56.97086449 313.29676161 -53.875 309.8125 C-53.34970703 309.20148438 -52.82441406 308.59046875 -52.28320312 307.9609375 C-47.68820169 302.69307603 -44.67470595 300.34990198 -37.8125 298.0625 C-36.3275 289.1525 -36.3275 289.1525 -34.8125 280.0625 C-43.82365384 282.97379586 -50.35596862 287.89591671 -57.78857422 293.54931641 C-61.11232601 296.03431201 -64.52925247 298.38305019 -67.9375 300.75 C-75.52442603 306.05329467 -82.87833934 311.63751674 -90.21850586 317.27563477 C-95.08448714 321.0066229 -99.97972756 324.66707846 -105 328.1875 C-111.44811998 332.72908451 -117.66106357 337.54610778 -123.86206055 342.41845703 C-124.59207275 342.99192871 -125.32208496 343.56540039 -126.07421875 344.15625 C-126.72350342 344.66865234 -127.37278809 345.18105469 -128.04174805 345.70898438 C-131.28325992 348.18670971 -133.11383999 349.31257232 -137.16407299 349.30859566 C-138.05831201 349.31257775 -138.95255103 349.31655985 -139.87388819 349.32066262 C-140.85734149 349.31483693 -141.84079478 349.30901125 -142.85404968 349.30300903 C-143.89791881 349.30471788 -144.94178794 349.30642673 -146.01728946 349.30818737 C-149.53202151 349.31149429 -153.04656469 349.30045871 -156.5612793 349.28955078 C-159.07400508 349.28898693 -161.5867312 349.28930272 -164.09945679 349.29043579 C-169.51787934 349.29089194 -174.93624055 349.28520142 -180.3546505 349.27396011 C-188.18878318 349.25771759 -196.02289257 349.25249839 -203.85704026 349.24998413 C-216.56689746 349.24560506 -229.276729 349.23229023 -241.98657227 349.21337891 C-254.33422721 349.19502558 -266.68187519 349.1808664 -279.02954102 349.17236328 C-279.79043672 349.17183783 -280.55133242 349.17131239 -281.33528557 349.17077102 C-285.15241179 349.16816097 -288.96953806 349.16563355 -292.78666437 349.16314721 C-324.46196172 349.14240812 -356.13722688 349.10702834 -387.8125 349.0625 C-385.32298097 346.46339363 -382.95256676 344.92270753 -379.75 343.25 C-359.75952169 332.53046815 -352.13971701 324.04415102 -344.8125 302.0625 C-363.2925 301.4025 -381.7725 300.7425 -400.8125 300.0625 C-397.43096966 288.79073219 -397.43096966 288.79073219 -394.6875 284 C-394.16929687 283.08089844 -393.65109375 282.16179687 -393.1171875 281.21484375 C-391.8125 279.0625 -391.8125 279.0625 -390.8125 278.0625 C-389.12540653 277.93950834 -387.43329097 277.88464742 -385.74194336 277.85717773 C-384.66089828 277.83723251 -383.57985321 277.81728729 -382.46604919 277.79673767 C-380.702015 277.77166893 -380.702015 277.77166893 -378.90234375 277.74609375 C-377.70517227 277.72531265 -376.50800079 277.70453156 -375.27455139 277.68312073 C-371.43309513 277.61749721 -367.59156799 277.55868097 -363.75 277.5 C-361.15298733 277.45682695 -358.55598194 277.41321307 -355.95898438 277.36914062 C-349.5768964 277.2618028 -343.19473682 277.16057182 -336.8125 277.0625 C-334.8325 270.4625 -332.8525 263.8625 -330.8125 257.0625 C-334.38143066 257.10793945 -334.38143066 257.10793945 -338.02246094 257.15429688 C-345.96518415 257.25523687 -353.90792456 257.3547718 -361.85067368 257.45365143 C-366.65696814 257.5135269 -371.46325609 257.5738467 -376.26953125 257.63525391 C-380.92501761 257.69471702 -385.58051832 257.75291909 -390.23603058 257.81031799 C-391.99463696 257.83220822 -393.75323815 257.85452068 -395.51183319 257.87730408 C-407.94605168 258.03800178 -420.37726797 258.08851729 -432.8125 258.0625 C-434.08248873 253.91367362 -433.23135011 252.04036502 -431.390625 248.08984375 C-430.85953125 246.94322266 -430.3284375 245.79660156 -429.78125 244.61523438 C-429.49894531 244.02186279 -429.21664062 243.42849121 -428.92578125 242.81713867 C-428.0667775 241.00900379 -427.22863019 239.19100906 -426.390625 237.37304688 C-421.48282005 226.89087213 -421.48282005 226.89087213 -418.8125 225.0625 C-416.07519531 224.64599609 -416.07519531 224.64599609 -412.640625 224.5859375 C-411.9941954 224.5706752 -411.34776581 224.5554129 -410.68174744 224.53968811 C-408.47536969 224.49146382 -406.26923148 224.46458919 -404.0625 224.4375 C-402.48475877 224.40752493 -400.90704063 224.37631437 -399.3293457 224.34399414 C-394.63033123 224.2524984 -389.93115264 224.18220519 -385.23175049 224.11395264 C-381.45113535 224.05706221 -377.67063271 223.99439654 -373.89013672 223.93017578 C-373.19715925 223.91841686 -372.50418179 223.90665794 -371.790205 223.89454269 C-370.36211641 223.87030253 -368.93402791 223.84605753 -367.50593948 223.82180786 C-351.27510527 223.54717262 -335.04392326 223.29968332 -318.8125 223.0625 C-317.4925 217.4525 -316.1725 211.8425 -314.8125 206.0625 C-317.30417725 206.07035522 -317.30417725 206.07035522 -319.84619141 206.07836914 C-328.37661857 206.10234378 -336.90704511 206.11607311 -345.4375 206.125 C-346.6550787 206.12628403 -346.6550787 206.12628403 -347.89725494 206.12759399 C-386.82862896 206.16349232 -425.75762903 205.86591613 -464.6875 205.5625 C-465.45488778 205.55652628 -466.22227556 205.55055257 -467.01291752 205.54439783 C-486.94615576 205.38912053 -506.87934843 205.22854183 -526.8125 205.0625 C-526.19879605 201.05654147 -525.48486574 197.9336697 -523.5625 194.35546875 C-523.1190625 193.52208984 -522.675625 192.68871094 -522.21875 191.83007812 C-521.7546875 190.97865234 -521.290625 190.12722656 -520.8125 189.25 C-520.3484375 188.37923828 -519.884375 187.50847656 -519.40625 186.61132812 C-515.98928571 180.23928571 -515.98928571 180.23928571 -514.8125 179.0625 C-513.10100609 178.91764251 -511.38369489 178.84115048 -509.66680908 178.79116821 C-508.54851463 178.75638493 -507.43022018 178.72160164 -506.27803802 178.68576431 C-505.03805305 178.65233807 -503.79806808 178.61891182 -502.52050781 178.58447266 C-501.22106483 178.5459103 -499.92162186 178.50734795 -498.58280182 178.46761703 C-494.98513133 178.3614255 -491.38730348 178.26191259 -487.78940105 178.16393232 C-485.50905814 178.10138237 -483.2287715 178.03707385 -480.94849396 177.97218704 C-446.5629102 176.99490344 -412.17205989 176.27004676 -377.77966452 175.58229947 C-369.56552371 175.41791718 -361.35145969 175.24982752 -353.13739729 175.08157992 C-336.36250804 174.73805731 -319.58753757 174.3987044 -302.8125 174.0625 C-302.52246094 172.97582031 -302.52246094 172.97582031 -302.2265625 171.8671875 C-301.96617187 170.90039062 -301.70578125 169.93359375 -301.4375 168.9375 C-301.18226563 167.98617187 -300.92703125 167.03484375 -300.6640625 166.0546875 C-299.8033316 163.03028443 -298.80687778 160.04563333 -297.8125 157.0625 C-331.1425 156.7325 -364.4725 156.4025 -398.8125 156.0625 C-400.0406827 151.14976918 -398.64646443 149.02176741 -396.375 144.8125 C-395.86743164 143.83796875 -395.86743164 143.83796875 -395.34960938 142.84375 C-394.51463113 141.24435506 -393.66496886 139.65264141 -392.8125 138.0625 C-391.8225 138.0625 -390.8325 138.0625 -389.8125 138.0625 C-389.1525 137.4025 -388.4925 136.7425 -387.8125 136.0625 C-385.22355652 135.79075623 -385.22355652 135.79075623 -381.89526367 135.75952148 C-380.64762741 135.74287949 -379.39999115 135.72623749 -378.11454773 135.70909119 C-376.73652195 135.70050446 -375.3584956 135.69200797 -373.98046875 135.68359375 C-372.55063279 135.66738101 -371.12080755 135.65019721 -369.69099426 135.63209534 C-365.89634383 135.58623409 -362.10167676 135.55161382 -358.30688477 135.51989746 C-354.56456319 135.487619 -350.82232242 135.4483572 -347.08007812 135.40820312 C-346.34822359 135.4003863 -345.61636906 135.39256947 -344.86233711 135.38451576 C-338.99916055 135.32031968 -333.13621689 135.24287709 -327.2733593 135.15419579 C-323.67819784 135.10020862 -320.08332261 135.05428846 -316.487854 135.02667236 C-312.42476844 134.99460228 -308.36329839 134.92279371 -304.30078125 134.84765625 C-303.07860397 134.84358261 -301.8564267 134.83950897 -300.59721375 134.83531189 C-299.48014542 134.80852859 -298.36307709 134.7817453 -297.2121582 134.75415039 C-296.23688675 134.74122452 -295.2616153 134.72829865 -294.25679016 134.71498108 C-291.09048787 134.17341534 -291.09048787 134.17341534 -288.8125 129.0625 C-286.3375 120.6475 -286.3375 120.6475 -283.8125 112.0625 C-302.2925 112.0625 -320.7725 112.0625 -339.8125 112.0625 C-336.4150878 101.8702634 -336.4150878 101.8702634 -333.75 97.5625 C-333.24339844 96.7271875 -332.73679687 95.891875 -332.21484375 95.03125 C-330.8125 93.0625 -330.8125 93.0625 -328.8125 92.0625 C-327.40525702 91.95000577 -325.99308875 91.89598774 -324.58154297 91.87304688 C-323.70658173 91.85632935 -322.83162048 91.83961182 -321.93014526 91.8223877 C-320.9812442 91.80881226 -320.03234314 91.79523682 -319.0546875 91.78125 C-318.07766876 91.76284058 -317.10065002 91.74443115 -316.09402466 91.72546387 C-312.95857886 91.66660455 -309.82307648 91.61389502 -306.6875 91.5625 C-303.57335236 91.51093488 -300.45927383 91.4578783 -297.34524536 91.39953613 C-295.40641254 91.36321717 -293.4675033 91.3307118 -291.52853394 91.3026123 C-290.18772263 91.27753601 -290.18772263 91.27753601 -288.81982422 91.25195312 C-288.04420135 91.23942505 -287.26857849 91.22689697 -286.4694519 91.21398926 C-282.90225178 91.01060112 -279.35790253 90.50567532 -275.8125 90.0625 C-273.3375 82.1425 -273.3375 82.1425 -270.8125 74.0625 C-280.75912754 73.07113486 -290.62357421 72.89189891 -300.60644531 72.85717773 C-302.37174193 72.8475794 -304.13703635 72.83756824 -305.90232849 72.82717896 C-310.6597164 72.80033538 -315.41711402 72.77921567 -320.1745348 72.75917697 C-325.15932256 72.73718941 -330.1440811 72.70986368 -335.12884521 72.68312073 C-344.55261842 72.63336541 -353.97640801 72.58836349 -363.400213 72.54509836 C-374.13549379 72.49557858 -384.87074522 72.44071549 -395.60599756 72.38541877 C-417.67480432 72.27186244 -439.74363915 72.16496685 -461.8125 72.0625 C-460.6748266 68.56813655 -459.60003939 65.37282235 -457.68359375 62.23046875 C-457.28849609 61.57755859 -456.89339844 60.92464844 -456.48632812 60.25195312 C-456.07833984 59.59130859 -455.67035156 58.93066406 -455.25 58.25 C-454.83814453 57.57001953 -454.42628906 56.89003906 -454.00195312 56.18945312 C-450.98202328 51.23202328 -450.98202328 51.23202328 -449.8125 50.0625 C-447.18399197 49.82608817 -444.5818822 49.66352297 -441.94677734 49.54492188 C-441.07188345 49.50374992 -440.19698956 49.46257797 -439.29558372 49.42015839 C-425.25556477 48.81181622 -411.19859875 48.63697662 -397.14858294 48.38825035 C-392.92976434 48.31268691 -388.71102552 48.23291443 -384.49227905 48.15344238 C-371.99379963 47.91876106 -359.4951988 47.69079493 -346.99658203 47.46356201 C-337.24680286 47.28620821 -327.49706226 47.10708781 -317.74740732 46.92301702 C-312.75367877 46.82893086 -307.75990406 46.73828348 -302.76606297 46.650383 C-299.64931731 46.59476598 -296.53263549 46.53604213 -293.41596222 46.47651863 C-291.98667351 46.44983682 -290.557361 46.42439192 -289.12802505 46.40037346 C-279.98641655 46.24591205 -270.92437789 45.80580785 -261.8125 45.0625 C-258.58846095 36.47633047 -255.78369455 28.7217994 -259 19.75 C-266.11927542 9.19383299 -276.00861021 6.03005094 -287.8125 3.0625 C-287.4825 2.4025 -287.1525 1.7425 -286.8125 1.0625 C-258.89588989 0.88607634 -230.97922087 0.72041326 -203.0625 0.5625 C-202.01292634 0.55655146 -200.96335267 0.55060292 -199.88197374 0.54447412 C-133.25435742 0.1675475 -66.62868984 -0.03074926 0 0 Z M-186.8125 76.0625 C-187.83484394 77.99217671 -187.83484394 77.99217671 -188.54248047 80.42016602 C-188.84644745 81.34946426 -189.15041443 82.27876251 -189.46359253 83.23622131 C-189.94180954 84.76091286 -189.94180954 84.76091286 -190.4296875 86.31640625 C-190.76872101 87.36465073 -191.10775452 88.4128952 -191.45706177 89.49290466 C-192.54521582 92.86674481 -193.6164529 96.24569492 -194.6875 99.625 C-195.40125402 101.84605361 -196.1160856 104.06676125 -196.83203125 106.28710938 C-198.5371379 111.58586149 -200.22593863 116.88958364 -201.90515137 122.19659424 C-202.74503183 124.84939844 -203.58933028 127.5007553 -204.43457031 130.15185547 C-204.89680447 131.61025015 -205.35874439 133.06873814 -205.8203125 134.52734375 C-206.21105957 135.75960693 -206.60180664 136.99187012 -207.00439453 138.26147461 C-207.90489927 140.89689324 -207.90489927 140.89689324 -207.8125 143.0625 C-167.8825 143.3925 -127.9525 143.7225 -86.8125 144.0625 C-89.06228726 154.18654268 -89.06228726 154.18654268 -90.35302734 158.00878906 C-90.64027679 158.86708313 -90.92752625 159.7253772 -91.22348022 160.60968018 C-91.52871613 161.50676697 -91.83395203 162.40385376 -92.1484375 163.328125 C-92.46906158 164.28338074 -92.78968567 165.23863647 -93.12002563 166.22283936 C-94.13821712 169.25419368 -95.16250311 172.28344078 -96.1875 175.3125 C-97.20433013 178.32760974 -98.21980192 181.34316691 -99.23355103 184.35931396 C-99.86156026 186.22673306 -100.491429 188.0935284 -101.12362671 189.95953369 C-103.48410719 196.96250571 -105.63669646 203.99113849 -107.8125 211.0625 C-169.1925 211.5575 -169.1925 211.5575 -231.8125 212.0625 C-234.1592541 218.2610547 -234.1592541 218.2610547 -236.28295898 224.51220703 C-236.65365761 225.67479538 -236.65365761 225.67479538 -237.03184509 226.86087036 C-237.28817215 227.67248627 -237.54449921 228.48410217 -237.80859375 229.3203125 C-238.0834108 230.18582733 -238.35822784 231.05134216 -238.64137268 231.94308472 C-239.21970985 233.76641726 -239.79699981 235.59008227 -240.37329102 237.4140625 C-241.24125373 240.1598315 -242.11354187 242.90419847 -242.98632812 245.6484375 C-248.98584184 261.60399662 -248.98584184 261.60399662 -251.8125 278.0625 C-202.9725 278.0625 -154.1325 278.0625 -103.8125 278.0625 C-100.64992515 270.25849513 -100.64992515 270.25849513 -97.92138672 262.36914062 C-97.60781219 261.37531372 -97.29423767 260.38148682 -96.97116089 259.35754395 C-96.64809967 258.32174194 -96.32503845 257.28593994 -95.9921875 256.21875 C-95.28527728 253.98173258 -94.57824249 251.74475453 -93.87109375 249.5078125 C-92.77176659 246.01466957 -91.67446847 242.52090707 -90.57958984 239.02636719 C-89.51405443 235.630476 -88.44106017 232.23701225 -87.3671875 228.84375 C-87.04007782 227.79175415 -86.71296814 226.7397583 -86.37594604 225.65588379 C-86.06867584 224.68727417 -85.76140564 223.71866455 -85.44482422 222.72070312 C-85.17709198 221.86706177 -84.90935974 221.01342041 -84.6335144 220.13391113 C-83.8125 218.0625 -83.8125 218.0625 -81.8125 216.0625 C-81.8125 215.0725 -81.8125 214.0825 -81.8125 213.0625 C-81.1525 213.0625 -80.4925 213.0625 -79.8125 213.0625 C-78.80395748 210.17134477 -77.87321433 207.3888395 -77.3125 204.375 C-76.8125 202.0625 -76.8125 202.0625 -74.8125 199.0625 C-74.07820408 197.14224689 -73.39569928 195.20182862 -72.75 193.25 C-72.40839844 192.23292969 -72.06679688 191.21585937 -71.71484375 190.16796875 C-70.83469874 187.13889826 -70.31382316 184.17247819 -69.8125 181.0625 C-69.4825 180.4025 -69.1525 179.7425 -68.8125 179.0625 C-68.53838692 177.1877473 -68.2909766 175.30906354 -68.05639648 173.42895508 C-66.8550623 165.38446287 -64.45509439 157.88858661 -61.91015625 150.19921875 C-61.42612942 148.71265603 -60.94294597 147.22581846 -60.46055603 145.73872375 C-59.19991415 141.86081797 -57.92703813 137.98703657 -56.65167236 134.11395264 C-55.61523957 130.95936885 -54.5877069 127.80192069 -53.56060123 124.64428997 C-52.32592924 120.84912696 -51.08737302 117.05523648 -49.84765625 113.26171875 C-49.61507677 112.54977545 -49.38249729 111.83783215 -49.14286995 111.1043148 C-45.02467946 98.51841681 -45.02467946 98.51841681 -43.06030273 93.36254883 C-42.12801059 90.89692704 -41.41207381 88.61096511 -40.8125 86.0625 C-40.1525 86.0625 -39.4925 86.0625 -38.8125 86.0625 C-38.45140458 84.41817294 -38.09879924 82.7719792 -37.75 81.125 C-37.55277344 80.20847656 -37.35554687 79.29195313 -37.15234375 78.34765625 C-37.04019531 77.59355469 -36.92804688 76.83945312 -36.8125 76.0625 C-38.5726887 74.3023113 -41.06763378 74.93635623 -43.45529175 74.93551636 C-45.29355026 74.93128662 -45.29355026 74.93128662 -47.16894531 74.92697144 C-48.53955093 74.92891605 -49.9101564 74.93096424 -51.28076172 74.93310547 C-52.71444747 74.93175144 -54.14813288 74.9299715 -55.58181763 74.92779541 C-59.4868026 74.92322042 -63.39176127 74.92501112 -67.29674673 74.9281745 C-71.37663439 74.93069874 -75.45651973 74.92836029 -79.53640747 74.92678833 C-86.39130052 74.92496641 -93.24618281 74.9273731 -100.10107422 74.93212891 C-108.03141197 74.93756724 -115.96172399 74.93581208 -123.89206111 74.9303025 C-130.69207412 74.92576684 -137.49207937 74.92512318 -144.2920934 74.92774117 C-148.35715667 74.929302 -152.42220785 74.92950308 -156.48727036 74.92620468 C-160.31047903 74.92331956 -164.13365451 74.92531352 -167.95685959 74.93109894 C-169.36174972 74.93242327 -170.76664264 74.93203794 -172.17153168 74.92983627 C-174.08626711 74.92711191 -176.00100862 74.93113084 -177.91574097 74.93551636 C-178.98833097 74.93589338 -180.06092098 74.93627041 -181.16601372 74.93665886 C-183.92003244 74.94789324 -183.92003244 74.94789324 -186.8125 76.0625 Z M29.1875 139.0625 C25.19613819 149.02784114 21.80795499 159.15210835 18.578125 169.38671875 C18.37199081 170.0397208 18.16585663 170.69272285 17.95347595 171.36551285 C16.44221264 176.15848303 14.93918799 180.95402277 13.4375 185.75 C11.73938237 191.17215611 10.03733861 196.59304937 8.328125 202.01171875 C8.11888901 202.67582638 7.90965302 203.33993401 7.69407654 204.02416611 C4.10147669 215.40627629 0.27853715 226.6995204 -3.69036865 237.95573425 C-4.08548645 239.08127213 -4.48060425 240.20681 -4.88769531 241.36645508 C-5.41040009 242.84109978 -5.41040009 242.84109978 -5.94366455 244.34553528 C-6.76335733 246.90882429 -7.34361318 249.41490245 -7.8125 252.0625 C-3.03997652 251.53088502 0.17810566 250.19587051 4.28125 247.73046875 C5.14558907 247.21457687 5.14558907 247.21457687 6.02738953 246.68826294 C7.92071245 245.55276415 9.80433302 244.40225214 11.6875 243.25 C13.01342623 242.44750729 14.33935399 241.6450171 15.6652832 240.8425293 C27.8782561 233.40788993 39.76606138 225.49994846 51.60546875 217.48828125 C67.83527605 206.51324132 67.83527605 206.51324132 72.1875 205.0625 C72.54134766 205.89587891 72.54134766 205.89587891 72.90234375 206.74609375 C74.5002752 209.62625591 76.492505 211.72619076 78.75 214.125 C82.12511102 217.75281912 85.34752682 221.43409088 88.4375 225.3125 C92.72108991 230.6290123 97.34613827 235.5588606 102.03417969 240.51464844 C105.40176889 244.09305272 108.6210269 247.71796656 111.6875 251.5625 C116.45263674 257.53230614 121.68595738 263.02494444 126.921875 268.578125 C130.44512093 272.31930367 133.85951501 276.14648759 137.1875 280.0625 C142.3858005 278.08162336 145.22297402 273.47220934 148.65234375 269.30078125 C151.1875 267.0625 151.1875 267.0625 153.80859375 267.1328125 C156.69894402 268.26237467 159.41307176 269.67528588 162.1875 271.0625 C163.1775 271.0625 164.1675 271.0625 165.1875 271.0625 C167.98330962 262.5638592 170.77467864 254.06376449 173.5625 245.5625 C173.7690559 244.93266708 173.9756118 244.30283417 174.18842697 243.65391541 C179.5369428 227.3418828 184.84326209 211.02134733 189.88745117 194.61230469 C191.78193567 188.47124423 193.74039835 182.36153126 195.8203125 176.28125 C196.03628586 175.64725281 196.25225922 175.01325562 196.47477722 174.36004639 C197.49761363 171.3613933 198.5319574 168.36766608 199.58618164 165.37988281 C199.94317139 164.34186523 200.30016113 163.30384766 200.66796875 162.234375 C201.14592896 160.8745752 201.14592896 160.8745752 201.63354492 159.48730469 C202.22205844 156.91122876 202.06134382 155.52518337 201.1875 153.0625 C194.19249781 160.52244035 187.20697965 167.98515609 180.390625 175.609375 C177.86289454 178.42394012 175.30894835 181.21386567 172.75 184 C163.15248125 194.41248822 163.15248125 194.41248822 153.75 205 C150.7886649 208.4093858 147.74597514 211.7404431 144.6875 215.0625 C141.04958376 219.01435744 137.45870073 222.99887313 133.94140625 227.05859375 C131.10411579 230.30030869 128.19936217 233.48107428 125.30078125 236.66796875 C121.02739189 240.82789692 121.02739189 240.82789692 119.1875 246.0625 C112.66404026 240.95885209 107.5083331 234.92446586 102.20703125 228.62109375 C99.54899104 225.46472379 96.79832129 222.40832806 94 219.375 C90.67968706 215.76156152 87.51998765 212.06837369 84.4375 208.25 C79.011158 200.78751104 79.011158 200.78751104 71.375 196.3125 C67.38158988 197.25212591 64.75730881 199.0920181 61.4453125 201.4609375 C58.47429978 203.56840327 55.37266185 205.30049557 52.1875 207.0625 C50.05250398 203.02998144 48.49944434 199.17777273 47.27734375 194.78515625 C46.75901978 192.95223022 46.75901978 192.95223022 46.23022461 191.08227539 C46.05022919 190.43727081 45.87023376 189.79226624 45.68478394 189.12771606 C42.25969815 176.87392691 38.5623984 164.72349979 34.625 152.625 C34.40149872 151.93793976 34.17799744 151.25087952 33.94772339 150.54299927 C32.70066806 146.71407007 31.44709985 142.88731958 30.1875 139.0625 C29.8575 139.0625 29.5275 139.0625 29.1875 139.0625 Z " fill="#71961C" transform="translate(577.8125,318.9375)"/>
<path d="M0 0 C1 3 1 3 -0.07421875 5.234375 C-0.60660156 6.06453125 -1.13898438 6.8946875 -1.6875 7.75 C-4.24839476 11.79151133 -6.61658032 15.82901557 -9 20 C-20.55 20 -32.1 20 -44 20 C-43.15305079 14.91830474 -42.46405567 12.47976698 -40.0625 8.1875 C-39.53785156 7.23230469 -39.01320313 6.27710938 -38.47265625 5.29296875 C-37 3 -37 3 -35 2 C-32.37844145 1.7735673 -29.77499468 1.59903475 -27.1484375 1.46484375 C-26.37440582 1.42186661 -25.60037415 1.37888947 -24.80288696 1.33460999 C-22.32713056 1.19810168 -19.85109371 1.06773236 -17.375 0.9375 C-15.69789462 0.84610682 -14.02081091 0.75431497 -12.34375 0.66210938 C-8.22940402 0.43677708 -4.11479612 0.21695049 0 0 Z " fill="#7F9B1F" transform="translate(105,371)"/>
<path d="M0 0 C-1.31667951 2.67499315 -2.69845762 5.29441063 -4.1640625 7.890625 C-4.5245166 8.53032227 -4.8849707 9.17001953 -5.25634766 9.82910156 C-5.70800293 10.62799805 -6.1596582 11.42689453 -6.625 12.25 C-8.06875 14.8075 -9.5125 17.365 -11 20 C-22.22 20 -33.44 20 -45 20 C-44.05429724 15.2714862 -42.79865535 12.41395764 -40.5 8.25 C-39.8709375 7.10015625 -39.241875 5.9503125 -38.59375 4.765625 C-37 2 -37 2 -36 1 C-33.5889398 0.8400614 -31.2031847 0.74063907 -28.7890625 0.68359375 C-28.06512299 0.66281265 -27.34118347 0.64203156 -26.5953064 0.62062073 C-24.27197066 0.55505594 -21.94851682 0.49625946 -19.625 0.4375 C-18.06509212 0.394313 -16.50519602 0.35069865 -14.9453125 0.30664062 C-3.89569924 0 -3.89569924 0 0 0 Z " fill="#7D9721" transform="translate(228,411)"/>
<path d="M0 0 C1.20446777 0.01047363 2.40893555 0.02094727 3.64990234 0.03173828 C5.60283203 0.04140625 5.60283203 0.04140625 7.59521484 0.05126953 C8.9754258 0.06798149 10.35563413 0.08491139 11.73583984 0.10205078 C13.12385436 0.11208072 14.51187574 0.12120655 15.89990234 0.12939453 C19.3037201 0.15303215 22.70719491 0.18598211 26.11083984 0.22705078 C23.72058959 8.06175993 20.62815317 14.60620523 17.11083984 22.22705078 C7.54083984 22.22705078 -2.02916016 22.22705078 -11.88916016 22.22705078 C-11.07534945 16.53037583 -10.32418726 13.39743778 -7.95166016 8.41455078 C-7.1646875 6.73425781 -7.1646875 6.73425781 -6.36181641 5.02001953 C-3.87548489 0.3045632 -3.87548489 0.3045632 0 0 Z " fill="#837B1A" transform="translate(141.88916015625,596.77294921875)"/>
<path d="M0 0 C0.80719379 2.31798775 1.15751935 3.55884416 0.3190918 5.90698242 C-0.05046631 6.54998291 -0.42002441 7.1929834 -0.80078125 7.85546875 C-1.20103516 8.55994141 -1.60128906 9.26441406 -2.01367188 9.99023438 C-2.44228516 10.71533203 -2.87089844 11.44042969 -3.3125 12.1875 C-3.72951172 12.92419922 -4.14652344 13.66089844 -4.57617188 14.41992188 C-7.71171016 19.85585508 -7.71171016 19.85585508 -10 21 C-11.59447464 21.08400529 -13.19240545 21.10727467 -14.7890625 21.09765625 C-15.73007813 21.09443359 -16.67109375 21.09121094 -17.640625 21.08789062 C-19.11789063 21.07532227 -19.11789063 21.07532227 -20.625 21.0625 C-21.61757812 21.05798828 -22.61015625 21.05347656 -23.6328125 21.04882812 C-26.0886016 21.03702145 -28.54427104 21.020554 -31 21 C-32.61727549 14.54757815 -30.12793076 9.72794049 -26.84765625 4.23046875 C-24.87073967 1.55495901 -23.45062851 0.47757565 -20.18359375 -0.19921875 C-16.77972146 -0.52997878 -13.43569617 -0.42574257 -10.03125 -0.14794922 C-6.6868911 0.09564231 -3.35185875 0.0261864 0 0 Z " fill="#818D1F" transform="translate(166,454)"/>
<path d="M0 0 C0.74362793 0.01047363 1.48725586 0.02094727 2.25341797 0.03173828 C3.46191406 0.04140625 3.46191406 0.04140625 4.69482422 0.05126953 C5.95746094 0.07640625 5.95746094 0.07640625 7.24560547 0.10205078 C8.51984375 0.11558594 8.51984375 0.11558594 9.81982422 0.12939453 C11.9202043 0.15299431 14.02043991 0.18886595 16.12060547 0.22705078 C15.50245425 4.78047453 13.65150976 8.51319078 11.55810547 12.53955078 C10.42373047 14.74642578 9.28935547 16.95330078 8.12060547 19.22705078 C1.52060547 19.22705078 -5.07939453 19.22705078 -11.87939453 19.22705078 C-10.34026541 15.37922799 -8.71923646 11.74223266 -6.87939453 8.03955078 C-6.36376953 6.99412109 -5.84814453 5.94869141 -5.31689453 4.87158203 C-2.85640522 0.34508403 -2.85640522 0.34508403 0 0 Z " fill="#86821D" transform="translate(117.87939453125,556.77294921875)"/>
<path d="M0 0 C0.80244141 0.00966797 1.60488281 0.01933594 2.43164062 0.02929688 C3.68170898 0.06700195 3.68170898 0.06700195 4.95703125 0.10546875 C6.22450195 0.12577148 6.22450195 0.12577148 7.51757812 0.14648438 C9.60183509 0.18181076 11.68576402 0.23561736 13.76953125 0.29296875 C12.23098727 4.38549575 10.32809241 8.18752793 8.26953125 12.04296875 C7.356875 13.76773438 7.356875 13.76773438 6.42578125 15.52734375 C4.76953125 18.29296875 4.76953125 18.29296875 2.76953125 19.29296875 C-0.11417208 19.36491744 -2.97286539 19.38588583 -5.85546875 19.35546875 C-6.65726563 19.35095703 -7.4590625 19.34644531 -8.28515625 19.34179688 C-10.26695881 19.33000043 -12.24872308 19.3120648 -14.23046875 19.29296875 C-13.6286395 15.25630915 -12.32785777 12.23004444 -10.35546875 8.66796875 C-9.84242187 7.72695313 -9.329375 6.7859375 -8.80078125 5.81640625 C-6.31029067 1.81427463 -4.87470528 -0.10371713 0 0 Z " fill="#848220" transform="translate(30.23046875,503.70703125)"/>
<path d="M0 0 C13.68602007 -0.09385657 27.37171457 -0.07981757 41.05792999 -0.04976654 C46.30847513 -0.03936901 51.55902538 -0.03493444 56.80957794 -0.02993011 C67.03420036 -0.01934029 77.25880065 -0.00236979 87.48340607 0.01889801 C87.48340607 0.34889801 87.48340607 0.67889801 87.48340607 1.01889801 C69.67183494 2.48518569 51.96109025 3.19773936 34.08887482 3.10874176 C33.17599827 3.10461903 32.26312172 3.10049629 31.32258224 3.09624863 C23.80269464 3.05908728 16.28302636 2.99909476 8.76337433 2.92948151 C3.07735231 2.87688043 -2.60848677 2.83576947 -8.29470634 2.81214333 C-10.92684542 2.79651944 -13.55841108 2.76363123 -16.19037628 2.73030853 C-17.78454418 2.7226172 -19.37871671 2.71581678 -20.97289276 2.71006012 C-21.69729553 2.6961322 -22.4216983 2.68220428 -23.16805267 2.66785431 C-27.11831498 2.66419836 -27.11831498 2.66419836 -30.48807526 4.53820038 C-30.82748642 5.0268306 -31.16689758 5.51546082 -31.51659393 6.01889801 C-32.17659393 5.68889801 -32.83659393 5.35889801 -33.51659393 5.01889801 C-31.83739969 2.53961528 -30.38570268 1.19313728 -27.40755463 0.59607697 C-24.49559378 0.38526053 -21.6040824 0.31042422 -18.68456268 0.27280426 C-16.94277992 0.22972893 -16.94277992 0.22972893 -15.16580963 0.18578339 C-10.11060012 0.08005338 -5.05609205 0.03796802 0 0 Z " fill="#A4E396" transform="translate(855.5165939331055,318.9811019897461)"/>
<path d="M0 0 C1.23259048 -0.00274933 2.46518097 -0.00549866 3.73512268 -0.0083313 C5.10322668 -0.00125303 6.47132969 0.00601659 7.83943176 0.01345825 C9.27827954 0.01402232 10.7171279 0.01370589 12.15597534 0.01257324 C16.06481421 0.01199856 19.97353075 0.02377151 23.88234115 0.03772116 C27.96628308 0.0502093 32.05022771 0.0513975 36.13418579 0.05377197 C43.86896024 0.05999238 51.60367826 0.07641078 59.33842784 0.09647095 C68.14364239 0.11881251 76.94885961 0.12981899 85.75409544 0.13986182 C103.86826625 0.16077653 121.98238451 0.1959634 140.09651184 0.24050903 C141.41189511 4.39822397 140.44084252 7.12843873 139.09651184 11.24050903 C138.43651184 11.24050903 137.77651184 11.24050903 137.09651184 11.24050903 C136.76651184 12.56050903 136.43651184 13.88050903 136.09651184 15.24050903 C135.76651184 14.58050903 135.43651184 13.92050903 135.09651184 13.24050903 C136.41651184 9.28050903 137.73651184 5.32050903 139.09651184 1.24050903 C90.25651184 1.57050903 41.41651184 1.90050903 -8.90348816 2.24050903 C-5.42459782 -0.07875119 -4.10457973 -0.00704649 0 0 Z " fill="#96BC5E" transform="translate(399.9034881591797,393.7594909667969)"/>
<path d="M0 0 C0.92212784 0.00359528 1.84425568 0.00719055 2.79432678 0.01089478 C4.24295105 0.01067574 4.24295105 0.01067574 5.72084045 0.01045227 C8.92952175 0.01115182 12.1381458 0.0189462 15.34681702 0.02676392 C17.56499195 0.02862794 19.78316729 0.03005192 22.00134277 0.03105164 C27.85231148 0.03487801 33.70325554 0.04470931 39.55421448 0.05575562 C45.51958381 0.06596717 51.4849571 0.07054871 57.45033264 0.07559204 C69.16453621 0.08633147 80.87872144 0.10340932 92.59291077 0.12442017 C92.59291077 0.45442017 92.59291077 0.78442017 92.59291077 1.12442017 C87.97853561 1.25102543 83.36407349 1.37382807 78.74952698 1.49398804 C77.01961107 1.53928935 75.28971176 1.58522886 73.55982971 1.63180542 C61.50226637 1.95452402 49.44706233 2.17473261 37.38587952 2.30801392 C33.49287554 2.35642387 29.59988432 2.4057729 25.70689392 2.45526123 C23.13071605 2.48470268 20.55447227 2.50885156 17.97819519 2.52770996 C14.33386676 2.55474108 10.69013612 2.59960925 7.04603577 2.64785767 C5.39700508 2.6526841 5.39700508 2.6526841 3.71466064 2.65760803 C2.70156326 2.67420975 1.68846588 2.69081146 0.64466858 2.70791626 C-0.67993378 2.72004654 -0.67993378 2.72004654 -2.03129578 2.73242188 C-4.86248612 3.19955919 -6.27103396 4.25507185 -8.40708923 6.12442017 C-7.26638448 -0.2309349 -6.50806912 0.01072228 0 0 Z " fill="#758914" transform="translate(194.40708923339844,452.8755798339844)"/>
<path d="M0 0 C52.47 0 104.94 0 159 0 C159 0.33 159 0.66 159 1 C106.53 1 54.06 1 0 1 C0 0.67 0 0.34 0 0 Z " fill="#ACA56B" transform="translate(285,668)"/>
<path d="M0 0 C0.66 0.33 1.32 0.66 2 1 C0.02 1.99 -1.96 2.98 -4 4 C42.53 4.495 42.53 4.495 90 5 C90 5.33 90 5.66 90 6 C53.7 6 17.4 6 -20 6 C-17.25000537 3.25000537 -14.25480527 3.09398702 -10.5625 2.4375 C-5.2224533 1.46621313 -5.2224533 1.46621313 0 0 Z " fill="#A59D59" transform="translate(195,663)"/>
<path d="M0 0 C0.33 0.99 0.66 1.98 1 3 C2.98 2.34 4.96 1.68 7 1 C5.47949898 5.41863719 2.00833815 7.42617605 -1.6875 9.9375 C-2.28755859 10.35451172 -2.88761719 10.77152344 -3.50585938 11.20117188 C-4.71754106 12.04323208 -5.93223483 12.88097458 -7.14990234 13.71435547 C-9.06977362 15.04848613 -10.94891757 16.43103187 -12.83203125 17.81640625 C-16 20 -16 20 -18 20 C-16.5735422 16.7413364 -14.83295838 14.5975146 -12.3046875 12.109375 C-11.23154297 11.04589844 -11.23154297 11.04589844 -10.13671875 9.9609375 C-9.39035156 9.23132813 -8.64398437 8.50171875 -7.875 7.75 C-7.12089844 7.00492188 -6.36679687 6.25984375 -5.58984375 5.4921875 C-3.73099228 3.6568658 -1.86762995 1.8263809 0 0 Z " fill="#9CA651" transform="translate(607,623)"/>
<path d="M0 0 C1.5631897 0.00785522 1.5631897 0.00785522 3.15795898 0.01586914 C4.28266602 0.0190918 5.40737305 0.02231445 6.56616211 0.02563477 C7.75016602 0.03401367 8.93416992 0.04239258 10.15405273 0.05102539 C11.34192383 0.05553711 12.52979492 0.06004883 13.75366211 0.06469727 C16.69967499 0.07652864 19.64558954 0.09301252 22.59155273 0.11352539 C22.59155273 0.44352539 22.59155273 0.77352539 22.59155273 1.11352539 C21.60312378 1.05684692 21.60312378 1.05684692 20.59472656 0.99902344 C6.7746116 -0.04191956 6.7746116 -0.04191956 -5.65063477 4.79321289 C-8.97592598 7.91807304 -11.70562867 11.45199597 -14.40844727 15.11352539 C-15.74852929 16.68812177 -17.10011436 18.25312657 -18.47094727 19.80102539 C-18.95692383 20.40301758 -19.44290039 21.00500977 -19.94360352 21.62524414 C-21.61113829 23.31945948 -23.24171876 24.16762026 -25.40844727 25.11352539 C-23.7178014 20.82915575 -20.59489422 17.8897694 -17.47094727 14.61352539 C-13.4063326 10.36346582 -13.4063326 10.36346582 -9.69360352 5.81274414 C-7.97058606 3.53459036 -5.88494383 2.4821156 -3.40844727 1.11352539 C-2.40844727 0.11352539 -2.40844727 0.11352539 0 0 Z " fill="#7AD461" transform="translate(829.408447265625,320.886474609375)"/>
<path d="M0 0 C0.84062397 3.09773244 1.08935201 5.78332751 1 9 C0.67 9 0.34 9 0 9 C-0.2475 10.051875 -0.495 11.10375 -0.75 12.1875 C-1.73665781 16.11298856 -2.84604182 19.99546149 -4 23.875 C-4.33 24.98617187 -4.66 26.09734375 -5 27.2421875 C-6 30 -6 30 -8 32 C-8.37400786 34.32716 -8.70764733 36.66117862 -9 39 C-9.33 39.66 -9.66 40.32 -10 41 C-10.66 41 -11.32 41 -12 41 C-12.33 42.32 -12.66 43.64 -13 45 C-14.31608016 42.36783968 -13.73883823 41.58126262 -12.82836914 38.82568359 C-12.54800308 37.96494232 -12.26763702 37.10420105 -11.97877502 36.21737671 C-11.51168373 34.8220018 -11.51168373 34.8220018 -11.03515625 33.3984375 C-10.72299667 32.44683746 -10.4108371 31.49523743 -10.08921814 30.51480103 C-9.08727134 27.46585722 -8.07501357 24.42044911 -7.0625 21.375 C-6.38278342 19.31272404 -5.70373809 17.25022671 -5.02539062 15.1875 C-3.35805069 10.12240233 -1.68222514 5.06017213 0 0 Z " fill="#9BAA50" transform="translate(508,491)"/>
<path d="M0 0 C-0.598125 0.721875 -1.19625 1.44375 -1.8125 2.1875 C-4.06336139 4.85679419 -4.06336139 4.85679419 -5.25 7.75 C-7 10 -7 10 -8.96484375 10.53515625 C-10.96699426 10.78498522 -12.98475849 10.90088976 -15 11 C-14.91651691 8.16157499 -14.4276272 6.45950686 -12.48046875 4.3671875 C-5.50841472 -1.70950802 -5.50841472 -1.70950802 0 0 Z " fill="#869121" transform="translate(623,615)"/>
<path d="M0 0 C1 3 1 3 2 6 C2.66 6 3.32 6 4 6 C2.69331354 9.92005939 1.21332305 10.28032042 -2.375 12.1875 C-3.35210937 12.71730469 -4.32921875 13.24710938 -5.3359375 13.79296875 C-8 15 -8 15 -11 15 C-9.3718356 11.24269753 -6.98598083 8.383177 -4.375 5.25 C-3.55773437 4.26515625 -2.74046875 3.2803125 -1.8984375 2.265625 C-1.27195312 1.51796875 -0.64546875 0.7703125 0 0 Z " fill="#90993F" transform="translate(515,640)"/>
<path d="M0 0 C4.95 0 9.9 0 15 0 C15 0.66 15 1.32 15 2 C13.28103516 2.47179687 13.28103516 2.47179687 11.52734375 2.953125 C9.99725794 3.38492836 8.46731766 3.81724761 6.9375 4.25 C5.80924805 4.55744141 5.80924805 4.55744141 4.65820312 4.87109375 C-0.40927074 6.31894343 -4.47881805 8.30456923 -9 11 C-9.66 11 -10.32 11 -11 11 C-11 10.01 -11 9.02 -11 8 C-7.37 6.35 -3.74 4.7 0 3 C0 2.01 0 1.02 0 0 Z " fill="#80D46E" transform="translate(932,320)"/>
<path d="M0 0 C22.44 0 44.88 0 68 0 C68 0.33 68 0.66 68 1 C45.56 1 23.12 1 0 1 C0 0.67 0 0.34 0 0 Z " fill="#71961C" transform="translate(218,452)"/>
<path d="M0 0 C0.99 0.33 1.98 0.66 3 1 C2.3709375 1.4640625 1.741875 1.928125 1.09375 2.40625 C-7.1080124 9.02694977 -10.82351747 16.49208585 -15 26 C-15.66 25.67 -16.32 25.34 -17 25 C-15.34207627 15.10426773 -8.96551662 7.89709308 -2 1 C-1.34 0.67 -0.68 0.34 0 0 Z " fill="#84D370" transform="translate(918,331)"/>
<path d="" fill="#F6FAEE" transform="translate(0,0)"/>
<path d="" fill="#FDF6EF" transform="translate(0,0)"/>
</svg>
